Coordinates
version=1
nRows=16
nColumns=22
inDegrees=yes

Units are S.I. units (second, meters, Newtons, ...)
If the header above contains a line with 'inDegrees', this indicates whether rotational values are in degrees (yes) or radians (no).

endheader
time	pelvis_tilt	pelvis_list	pelvis_rotation	pelvis_tx	pelvis_ty	pelvis_tz	hip_flexion_r	hip_adduction_r	hip_rotation_r	knee_angle_r	ankle_angle_r	subtalar_angle_r	hip_flexion_l	hip_adduction_l	hip_rotation_l	knee_angle_l	ankle_angle_l	subtalar_angle_l	lumbar_extension	lumbar_bending	lumbar_rotation
      4.19000000	      1.21873882	     -5.45947769	      4.52094597	     -0.02909579	      0.99466832	     -0.41892483	     -5.44700640	     16.21709508	     10.44347609	    -11.42156702	     12.23111880	     -9.72169406	     24.88396914	     -3.75037071	      8.39728919	    -12.10599506	      3.35610935	     13.79741545	    -14.65158835	      6.90978280	      9.66428447
      4.20000000	      1.19223674	     -5.58525617	      3.94478910	     -0.02318197	      0.99377869	     -0.41899910	     -5.82297573	     16.27781025	     10.83368304	    -11.55943712	     12.45238378	     -9.69667835	     24.66413272	     -3.52111314	      9.05588134	    -10.93611208	      3.43170580	     13.89853797	    -14.65644142	      6.97288320	      9.63793913
      4.21000000	      1.18868001	     -5.71852041	      3.34456902	     -0.01710956	      0.99289491	     -0.41897507	     -6.22994416	     16.34532149	     11.23968574	    -11.71362487	     12.66623550	     -9.69218413	     24.42082559	     -3.33552240	      9.71512005	     -9.97089989	      3.57527056	     13.94669754	    -14.67699317	      7.03592089	      9.65120184
      4.22000000	      1.19146817	     -5.85687304	      2.71850842	     -0.01090742	      0.99200668	     -0.41883150	     -6.64439393	     16.41800866	     11.68311589	    -11.89606461	     12.87481245	     -9.70590478	     24.17977883	     -3.18621554	     10.36024600	     -9.23544443	      3.74995940	     13.95683626	    -14.70160000	      7.09405453	      9.68547118
      4.23000000	      1.19734204	     -5.99691400	      2.07381455	     -0.00457609	      0.99112290	     -0.41858855	     -7.06053463	     16.49028370	     12.16428168	    -12.10901594	     13.06080941	     -9.72508554	     23.95104309	     -3.06180935	     10.96932264	     -8.75084856	      3.93153002	     13.92944507	    -14.72357857	      7.14693963	      9.72332104
      4.24000000	      1.21394091	     -6.13466019	      1.41621029	      0.00188035	      0.99026709	     -0.41824979	     -7.48659993	     16.55830054	     12.67994507	    -12.35152758	     13.23779497	     -9.74120459	     23.72495324	     -2.95266765	     11.56209290	     -8.51776641	      4.09437446	     13.84124516	    -14.75164987	      7.18898583	      9.75906647
      4.25000000	      1.24347042	     -6.25198200	      0.74948073	      0.00848186	      0.98946344	     -0.41783711	     -7.92895065	     16.59911585	     13.20479460	    -12.61341169	     13.38789016	     -9.74406178	     23.48525067	     -2.83660053	     12.16062173	     -8.50928640	      4.21390962	     13.63927470	    -14.78358676	      7.20252364	      9.79762224
      4.26000000	      1.25399143	     -6.36980449	      0.07805333	      0.01518450	      0.98867576	     -0.41735850	     -8.35457305	     16.63562683	     13.76172527	    -12.88728772	     13.51625230	     -9.73331657	     23.27337230	     -2.72876528	     12.80073302	     -8.71100109	      4.19353779	     13.33798060	    -14.78790239	      7.21261134	      9.82819763
      4.27000000	      1.27573353	     -6.44602021	     -0.58707582	      0.02203484	      0.98796418	     -0.41683435	     -8.78130414	     16.62525086	     14.27853218	    -13.19724757	     13.64119875	     -9.69597242	     23.02562167	     -2.58847235	     13.49818028	     -9.04479288	      4.06208230	     12.74683192	    -14.78735601	      7.17535401	      9.80039792
      4.28000000	      1.25106457	     -6.51227503	     -1.24801051	      0.02895013	      0.98726651	     -0.41626791	     -9.15347908	     16.60349959	     14.80064206	    -13.52141054	     13.72092221	     -9.64501049	     22.83445928	     -2.44435573	     14.25522438	     -9.51379203	      3.68444661	     12.08128211	    -14.72416579	      7.13176828	      9.74037098
      4.29000000	      1.19746915	     -6.54148931	     -1.89421389	      0.03595226	      0.98663324	     -0.41568107	     -9.48553052	     16.54299607	     15.27893481	    -13.85954082	     13.76887197	     -9.57527675	     22.67524298	     -2.27113129	     15.05718926	    -10.06568988	      3.07564609	     11.30163819	    -14.61350536	      7.05254596	      9.63807125
      4.30000000	      1.11521368	     -6.53481703	     -2.52432546	      0.04302122	      0.98607756	     -0.41505526	     -9.77195633	     16.45081351	     15.72507780	    -14.22029537	     13.79341746	     -9.48413013	     22.56285810	     -2.07740011	     15.84548072	    -10.67865679	      2.27982573	     10.45903084	    -14.45769231	      6.93890567	      9.47322065
      4.31000000	      1.00375700	     -6.49243283	     -3.13518823	      0.05014814	      0.98562063	     -0.41438532	    -10.01176219	     16.32910768	     16.12858595	    -14.59771695	     13.77610590	     -9.36888077	     22.51824073	     -1.86947946	     16.54393116	    -11.35027253	      1.35384165	      9.68681261	    -14.25677207	      6.79063047	      9.25389113
      4.32000000	      0.86865618	     -6.41623259	     -3.72307617	      0.05733544	      0.98527844	     -0.41367014	    -10.21104632	     16.18077090	     16.47964824	    -14.98668574	     13.70864058	     -9.22496589	     22.55264084	     -1.65530146	     17.08039878	    -12.08920997	      0.39819887	      9.07823221	    -14.01680591	      6.61113601	      8.99476749
      4.33000000	      0.71971899	     -6.31334455	     -4.28545929	      0.06458976	      0.98506956	     -0.41288750	    -10.37781065	     16.01552092	     16.77848404	    -15.39116313	     13.58687421	     -9.04730575	     22.66227800	     -1.45036441	     17.39668692	    -12.90275722	     -0.47738840	      8.68027829	    -13.75047289	      6.40453255	      8.69546853
      4.34000000	      0.57868054	     -6.19059562	     -4.82217543	      0.07192134	      0.98502494	     -0.41202564	    -10.53996782	     15.83786120	     17.03946765	    -15.80278438	     13.40777141	     -8.85318565	     22.81442790	     -1.26831857	     17.46418232	    -13.78131921	     -1.20094435	      8.51968271	    -13.48485498	      6.17584800	      8.36221480
